#!OML:ASF F:\VICON\USERDATA\INSTALL\rory3\rory3.ASF
:FULLY-SPECIFIED
:DEGREES
10
root 0.39843700000000004 18.1799 0.7618860000000094 -1.85295 -1.7720600000000009 -2.40255
lfemur 1.378480000000014 -1.1596800000000034 -19.8623
ltibia 53.122800000000005
lfoot 15.95809999999998 -13.186800000000032
ltoes -7.489940000000005
rfemur -20.491700000000023 4.1824 25.9239
rtibia 26.719699999999975
rfoot -4.478920000000006 -2.3443699999999974
rtoes 2.837430000000001
lowerback nan -0.8444170000000023 1.34034
upperback 0.4792020000000001 -0.8185650000000007 2.9668499999999987
thorax -5.01907 -0.4022949999999995 2.4579500000000016
lowerneck -16.9378 -2.7159799999999996 -1.80642
upperneck 21.5691 -3.2282900000000008 -0.31401400000000146
head 9.65148 -1.6877099999999998 -0.23466400000000034
lclavicle -2.1717200000000038e-14 3.498609999999993e-14
lhumerus -26.756000000000004 -2.4640600000000035 84.8735
lradius 29.130300000000005
lwrist 8.643399999999994
lhand -24.82239999999999 19.608399999999996
lfingers nan
lthumb 1.6831200000000057 49.581500000000005
rclavicle -2.1717200000000038e-14 3.498609999999993e-14
rhumerus -30.647599999999997 -22.846000000000004 -75.709
rradius 21.894099999999995
rwrist 8.709510000000003
rhand -17.3485 nan
rfingers nan
rthumb 8.89902 -5.0373100000000015
11
root 0.31626699999999996 18.2251 1.4582500000000138 -2.39188 -2.01839 -3.034639999999998
lfemur -4.012489999999999 -0.3672879999999963 -18.628
ltibia 60.904199999999946
lfoot 12.848300000000041 -10.20280000000002
ltoes -13.189100000000002
rfemur -17.565399999999993 5.442569999999999 27.2032
rtibia 27.12379999999998
rfoot -4.721879999999999 -3.0507399999999945
rtoes 9.561880000000007
lowerback nan -0.5634549999999995 1.9884499999999996
upperback 0.6580380000000003 -0.37095599999999807 2.926420000000002
thorax -4.98592 -0.19651700000000116 1.9883300000000017
lowerneck -16.1314 -2.88862 -1.8659899999999998
upperneck 21.3371 -3.5877099999999995 0.17537100000000105
head 9.43372 -1.80636 -0.0879201
lclavicle -5.9386899999999995e-15 -1.0336800000000005e-14
lhumerus -27.078799999999994 -4.089190000000008 85.5758
lradius 28.2044
lwrist 5.22137
lhand -30.652099999999997 15.5208
lfingers nan
lthumb -3.9471699999999963 45.46400000000001
rclavicle -5.9386899999999995e-15 -1.0336800000000005e-14
rhumerus -29.708799999999997 -23.389299999999995 -75.8369
rradius 20.638099999999998
rwrist 10.481699999999993
rhand -16.1518 nan
rfingers nan
rthumb 10.053700000000001 -6.543640000000002
12
root 0.24084800000000006 18.2533 2.1211399999999934 -2.6317399999999997 -1.8551299999999995 -3.633469999999999
lfemur -9.140260000000001 0.20096299999999667 -17.388800000000007
ltibia 66.05420000000008
lfoot 2.952159999999984 -7.825630000000009
ltoes -3.36545
rfemur -15.248700000000003 6.400109999999997 28.3845
rtibia 27.827099999999987
rfoot -7.262360000000001 -4.242839999999995
rtoes 8.036490000000004
lowerback nan -0.4501180000000028 2.5278400000000016
upperback 0.4779059999999999 -0.12643399999999927 2.893559999999998
thorax -5.503620000000001 -0.09053759999999944 1.624810000000001
lowerneck -15.934099999999999 -3.0289199999999994 -1.99624
upperneck 21.9063 -3.8367600000000004 0.48623499999999953
head 9.60912 -1.8972299999999997 0.006702749999999813
lclavicle -1.0808900000000021e-14 -1.630029999999998e-14
lhumerus -28.6172 -3.7966500000000067 85.7903
lradius 27.773999999999997
lwrist 2.7903400000000023
lhand -28.7842 20.081299999999995
lfingers nan
lthumb -2.1432899999999977 50.05030000000001
rclavicle -1.0808900000000021e-14 -1.630029999999998e-14
rhumerus -28.9264 -22.894399999999994 -76.4488
rradius 20.689700000000006
rwrist 11.5213
rhand -16.8648 nan
rfingers nan
rthumb 9.36583 -7.31069
13
root 0.1852190000000004 18.2595 2.798169999999992 -2.9595199999999986 -1.8330299999999995 -4.02805
lfemur -13.7318 0.5086749999999958 -16.667400000000004
ltibia 67.90530000000007
lfoot -0.8247490000000015 -6.951779999999991
ltoes 0.6433120000000039
rfemur -12.5893 6.620789999999996 29.302599999999998
rtibia 28.23749999999999
rfoot -9.599430000000002 -4.755419999999998
rtoes 9.43924000000001
lowerback nan -0.21254699999999804 3.0701399999999968
upperback 1.0364199999999992 0.1888490000000017 2.7433799999999984
thorax -4.544959999999999 0.05925050000000104 1.1040599999999998
lowerneck -15.958500000000003 -3.08451 -1.7425999999999995
upperneck 21.6302 -3.9303600000000003 0.3066560000000006
head 9.50784 -1.93994 -0.107049
lclavicle -6.062929999999992e-15 3.776909999999999e-14
lhumerus -28.6578 -2.7716100000000026 85.771
lradius 26.7746
lwrist 2.0284800000000014
lhand -28.964699999999997 21.0285
lfingers nan
lthumb -2.317619999999999 50.9956
rclavicle -6.062929999999992e-15 3.776909999999999e-14
rhumerus -27.357799999999997 -21.230100000000004 -77.834
rradius 21.533599999999993
rwrist 9.264749999999996
rhand -17.0639 nan
rfingers nan
rthumb 9.17368 -6.3493400000000015
14
root 0.14416000000000034 18.2368 3.4466899999999923 -2.927470000000002 -2.12253 -4.426280000000004
lfemur -18.5045 0.7106420000000013 -16.047399999999996
ltibia 66.99850000000004
lfoot -4.3228599999999995 -5.388930000000006
ltoes 0.4544669999999984
rfemur -10.468100000000005 6.093500000000003 30.145800000000015
rtibia 28.996599999999997
rfoot -12.281100000000002 -4.5828399999999965
rtoes 9.261010000000006
lowerback nan 0.06635110000000133 3.5345999999999966
upperback 0.8552070000000004 0.621277 2.660749999999999
thorax -4.79216 0.25950000000000056 0.6980819999999998
lowerneck -15.7764 -3.0727300000000004 -1.7820000000000003
upperneck 21.937 -3.9237699999999998 0.36085900000000043
head 9.58376 -1.9336699999999998 -0.08080799999999985
lclavicle 4.8205299999999995e-15 -1.9721522630525295e-31
lhumerus -30.0345 -1.3959900000000032 85.6376
lradius 26.2145
lwrist 3.676959999999999
lhand -26.122699999999995 28.258200000000002
lfingers nan
lthumb 0.42727300000000046 58.2376
rclavicle 4.8205299999999995e-15 -1.9721522630525295e-31
rhumerus -26.8648 -18.173 -79.2387
rradius 23.4903
rwrist 6.14346
rhand -16.9801 nan
rfingers nan
rthumb 9.25453 -11.905299999999993
15
root 0.11036299999999982 18.1767 4.089139999999996 -3.2442300000000017 -3.181899999999999 -5.084449999999995
lfemur -21.600899999999996 1.6777900000000012 -15.112200000000003
ltibia 63.55569999999997
lfoot -7.921239999999997 -2.806949999999997
ltoes -0.8863079999999988
rfemur -8.066690000000005 6.391719999999997 31.3085
rtibia 29.77129999999999
rfoot -14.619099999999992 -4.477999999999995
rtoes 10.761999999999981
lowerback nan 0.5838430000000001 4.294270000000003
upperback 1.065769999999999 1.4019599999999997 2.5699499999999995
thorax -4.74317 0.6304600000000001 0.0642416999999994
lowerneck -15.7695 -3.11865 -1.8252000000000002
upperneck 21.6077 -4.05875 0.7267569999999999
head 9.47776 -1.95899 0.038335700000000125
lclavicle -1.2622800000000017e-14 -7.951390000000015e-16
lhumerus -30.911899999999996 -0.8860279999999967 85.626
lradius 26.1255
lwrist 4.78463
lhand -26.3391 25.936700000000002
lfingers nan
lthumb 0.21819100000000002 55.9163
rclavicle -1.2622800000000017e-14 -7.951390000000015e-16
rhumerus -25.703699999999998 -16.099700000000002 -80.4272
rradius 24.72
rwrist 5.2271399999999995
rhand -18.1035 nan
rfingers nan
rthumb 8.170430000000001 -9.475179999999996
